<svg id="Lager_1" data-name="Lager 1" xmlns="http://www.w3.org/2000/svg" viewBox="0 0 596.65 745.34"><defs><style>.cls-1,.cls-2,.cls-3,.cls-4{fill:#545353;}.cls-2{font-size:181.14px;letter-spacing:0.08em;}.cls-2,.cls-3,.cls-4{font-family:TheBoldFont, The Bold Font;}.cls-3{font-size:144.91px;letter-spacing:0.08em;}.cls-4{font-size:126.8px;letter-spacing:0.08em;}</style></defs><path class="cls-1" d="M12.05,195.39H587a8.25,8.25,0,0,0,7.89-10.63C582.71,144,523.68,0,299.54,0S16.37,144,4.15,184.76A8.25,8.25,0,0,0,12.05,195.39Z" transform="translate(-3.8)"/><path class="cls-1" d="M12,584.4H587c5.54,0,7.89,5.09,7.89,10.62,0,87.07,9.57,150.32-295.36,150.32C13,745.34,4.14,682.09,4.14,595,4.14,589.49,6.5,584.4,12,584.4Z" transform="translate(-3.8)"/><text class="cls-2" transform="translate(89.09 341.07) scale(1.25 1)">THE</text><text class="cls-3" transform="translate(0.34 461.83)">BURGER</text><text class="cls-4" transform="translate(89.09 574.79)">PLACE</text></svg>