<?xml version="1.0"?>
<svg xmlns="http://www.w3.org/2000/svg" width="512" height="512" viewBox="0 0 128 128"><g><path d="M116.49,0H22.279a1.75,1.75,0,0,0-1.75,1.75V16.772H15.51a5.757,5.757,0,0,0-5.75,5.75v2.77a5.756,5.756,0,0,0,5.75,5.75h5.019V43.5H15.51a5.756,5.756,0,0,0-5.75,5.75v2.769a5.756,5.756,0,0,0,5.75,5.75h5.019V70.233H15.51a5.757,5.757,0,0,0-5.75,5.75v2.77a5.756,5.756,0,0,0,5.75,5.75h5.019V96.964H15.51a5.756,5.756,0,0,0-5.75,5.75v2.769a5.756,5.756,0,0,0,5.75,5.75h5.019V126.25a1.75,1.75,0,0,0,1.75,1.75H116.49a1.75,1.75,0,0,0,1.75-1.75V1.75A1.75,1.75,0,0,0,116.49,0ZM15.51,27.542a2.253,2.253,0,0,1-2.25-2.25v-2.77a2.253,2.253,0,0,1,2.25-2.25h5.019v7.27Zm0,26.73a2.252,2.252,0,0,1-2.25-2.25V49.253A2.253,2.253,0,0,1,15.51,47h5.019v7.269ZM15.51,81a2.253,2.253,0,0,1-2.25-2.25v-2.77a2.253,2.253,0,0,1,2.25-2.25h5.019V81Zm0,26.73a2.252,2.252,0,0,1-2.25-2.25v-2.769a2.253,2.253,0,0,1,2.25-2.25h5.019v7.269ZM114.74,124.5H24.029V3.5H114.74Z"/><path d="M32.279,77.128H106.49a1.75,1.75,0,0,0,1.75-1.75V67.69a1.751,1.751,0,0,0-1.75-1.75h-4.512V64.6A32.651,32.651,0,0,0,79.07,33.472c.011-.188.034-.377.034-.563a9.719,9.719,0,1,0-19.438,0c0,.186.022.375.034.563A32.652,32.652,0,0,0,36.791,64.6V65.94H32.279a1.751,1.751,0,0,0-1.75,1.75v7.688A1.75,1.75,0,0,0,32.279,77.128ZM69.385,26.69a6.222,6.222,0,0,1,6.2,5.912,32.417,32.417,0,0,0-12.406,0A6.221,6.221,0,0,1,69.385,26.69ZM40.291,64.6a29.094,29.094,0,0,1,58.188,0V65.94H40.291ZM34.029,69.44H104.74v4.188H34.029Z"/><path d="M32.279,86.815H106.49a1.75,1.75,0,1,0,0-3.5H32.279a1.75,1.75,0,0,0,0,3.5Z"/><path d="M32.279,95.815H106.49a1.75,1.75,0,1,0,0-3.5H32.279a1.75,1.75,0,0,0,0,3.5Z"/><path d="M97.25,101.315H41.52a1.75,1.75,0,0,0,0,3.5H97.25a1.75,1.75,0,0,0,0-3.5Z"/></g></svg>
